<?xml version="1.0" encoding="utf-8"?>
<!-- Generator: Adobe Illustrator 23.1.1, SVG Export Plug-In . SVG Version: 6.00 Build 0)  -->
<svg version="1.1" id="Слой_2" xmlns="http://www.w3.org/2000/svg" xmlns:xlink="http://www.w3.org/1999/xlink" x="0px" y="0px"
	 viewBox="0 0 100 100" style="enable-background:new 0 0 100 100;" xml:space="preserve">
<style type="text/css">
	.st0{fill:#FFFFFF;}
</style>
<path class="st0" d="M60.18,21c-0.81-0.07-1.55,0.53-1.63,1.36c-0.78,8.6-2.35,12.44-5.78,14.16c-0.04,0.02-3.97,1.84-7.76-0.01
	c-4.1-1.99-4.94-6.3-5.1-14.05c-0.02-0.83-0.68-1.52-1.53-1.47c-0.83,0.02-1.48,0.7-1.47,1.53c0.16,7.4,0.78,13.76,6.79,16.68
	c1.11,0.54,2.21,0.83,3.27,0.99l0.1,7.41c0.01,0.82,0.68,1.48,1.5,1.48c0.01,0,0.01,0,0.02,0c0.83-0.01,1.49-0.69,1.48-1.52
	l-0.1-7.29c2.41-0.24,4.11-1.05,4.14-1.07c5.17-2.58,6.68-8.26,7.43-16.57C61.61,21.81,61.01,21.08,60.18,21z"/>
</svg>
