<?xml version="1.0" encoding="utf-8"?>
<!-- Generator: Adobe Illustrator 23.1.1, SVG Export Plug-In . SVG Version: 6.00 Build 0)  -->
<svg version="1.1" id="Слой_2" xmlns="http://www.w3.org/2000/svg" xmlns:xlink="http://www.w3.org/1999/xlink" x="0px" y="0px"
	 viewBox="0 0 100 100" style="enable-background:new 0 0 100 100;" xml:space="preserve">
<style type="text/css">
	.st0{fill:#FFFFFF;}
</style>
<g>
	<path class="st0" d="M61.53,57.83c-0.75-0.35-1.64-0.03-1.99,0.73l-7.08,15.2c-0.35,0.75-0.03,1.64,0.73,1.99
		c0.21,0.1,0.42,0.14,0.63,0.14c0.57,0,1.11-0.32,1.36-0.87l7.08-15.2C62.6,59.07,62.28,58.18,61.53,57.83z"/>
	<path class="st0" d="M64.86,48.5c-2.64,0-4.78,2.15-4.78,4.78s2.15,4.78,4.78,4.78s4.78-2.15,4.78-4.78S67.5,48.5,64.86,48.5z
		 M64.86,55.07c-0.98,0-1.78-0.8-1.78-1.78s0.8-1.78,1.78-1.78s1.78,0.8,1.78,1.78S65.85,55.07,64.86,55.07z"/>
</g>
</svg>
