<?xml version="1.0" encoding="utf-8"?>
<!-- Generator: Adobe Illustrator 23.1.1, SVG Export Plug-In . SVG Version: 6.00 Build 0)  -->
<svg version="1.1" id="Слой_2" xmlns="http://www.w3.org/2000/svg" xmlns:xlink="http://www.w3.org/1999/xlink" x="0px" y="0px"
	 viewBox="0 0 100 100" style="enable-background:new 0 0 100 100;" xml:space="preserve">
<style type="text/css">
	.st0{fill:#FFFFFF;}
</style>
<path class="st0" d="M74.55,22.48c-4.12-1.7-9.68,3.76-12.22,7.59c-4.54,6.84-4.24,14.14-3.66,17.89c0.13,0.82,0.89,1.38,1.71,1.25
	c0.82-0.13,1.38-0.89,1.25-1.71c-0.29-1.88-0.5-4.76,0.09-7.99c1.73,0.38,3.88,1.15,5.97,2.72c3.55,2.67,5,6.19,5.56,8.05
	c0,0.01,0.01,0.02,0.01,0.03c0.04,0.14,0.11,0.26,0.18,0.38c0.02,0.03,0.04,0.05,0.05,0.07c0.08,0.11,0.18,0.21,0.29,0.3
	c0.01,0.01,0.02,0.01,0.03,0.02c0.11,0.08,0.23,0.14,0.36,0.18c0.02,0.01,0.05,0.02,0.07,0.03c0.12,0.04,0.23,0.06,0.36,0.07
	c0.03,0,0.05,0,0.08,0c0,0,0,0,0,0c0,0,0,0,0,0c0,0,0,0,0,0c0.13,0,0.26-0.02,0.38-0.05c0.02,0,0.03,0,0.05-0.01
	c0.02-0.01,0.04-0.02,0.06-0.03c0.05-0.02,0.1-0.04,0.15-0.06c0.04-0.02,0.08-0.04,0.12-0.06c0.04-0.02,0.08-0.05,0.12-0.08
	c0.04-0.03,0.08-0.06,0.11-0.09c0.04-0.03,0.07-0.07,0.1-0.1c0.03-0.03,0.06-0.07,0.09-0.1c0.03-0.04,0.06-0.08,0.09-0.13
	c0.02-0.04,0.05-0.07,0.07-0.11c0.02-0.05,0.04-0.09,0.06-0.14c0.02-0.04,0.03-0.08,0.05-0.13c0.01-0.05,0.02-0.09,0.03-0.14
	c0.01-0.05,0.02-0.1,0.02-0.15c0-0.01,0.01-0.03,0.01-0.04l0.32-5.65C77.44,27.71,77.66,23.77,74.55,22.48z M69.5,39.84
	c-2.46-1.85-4.98-2.77-7.03-3.23c0.53-1.61,1.29-3.26,2.36-4.87c2.63-3.97,6.87-7.18,8.58-6.48c1.14,0.47,0.71,8.14,0.11,18.76
	C72.52,42.59,71.22,41.13,69.5,39.84z"/>
</svg>
