<?xml version="1.0" encoding="utf-8"?>
<!-- Generator: Adobe Illustrator 23.1.1, SVG Export Plug-In . SVG Version: 6.00 Build 0)  -->
<svg version="1.1" id="Слой_2" xmlns="http://www.w3.org/2000/svg" xmlns:xlink="http://www.w3.org/1999/xlink" x="0px" y="0px"
	 viewBox="0 0 100 100" style="enable-background:new 0 0 100 100;" xml:space="preserve">
<style type="text/css">
	.st0{fill:none;stroke:#000000;stroke-width:8;stroke-linecap:round;stroke-miterlimit:10;}
</style>
<path class="st0" d="M10.99,25.36c35.75-5.99,58.63-11.49,58.78-10.51c0.92,5.83-62.25,18.63-61.77,20.89
	c0.51,2.4,71.66-13.71,71.87-12.44c0.91,5.52-70.45,17.81-70.04,20.15c0.41,2.27,70.3-11.45,70.41-9.85
	c0.71,9.96-72.83,17.08-72.48,19.3c0.36,2.28,75.65-10.31,75.78-8.46c0.32,4.68-76.54,16.38-76.24,18.4
	c0.29,1.93,70.76-9.1,70.95-7.71c0.19,1.35-66.61,12.78-66.36,14.67c0.24,1.84,63.63-6.9,63.84-5.47c0.21,1.46-65.32,12.1-65.2,12.8
	c0.12,0.72,69.13-10.07,69.34-8.82c0.2,1.18-61.92,12.4-61.77,13.43c0.04,0.27,4.45-0.25,16.95-2.02
	c32.68-4.63,52.16-8.42,52.2-8.14c0.07,0.42-49.8,10.07-49.64,11.15c0.16,1.05,48.54-3.37,48.51-3.69
	c-0.04-0.34-57.84,3.7-57.69,5.67c0.04,0.55,13.43,0.27,39.04-0.75"/>
</svg>
