<?xml version="1.0" encoding="utf-8"?>
<!-- Generator: Adobe Illustrator 23.1.1, SVG Export Plug-In . SVG Version: 6.00 Build 0)  -->
<svg version="1.1" id="Слой_2" xmlns="http://www.w3.org/2000/svg" xmlns:xlink="http://www.w3.org/1999/xlink" x="0px" y="0px"
	 viewBox="0 0 100 100" style="enable-background:new 0 0 100 100;" xml:space="preserve">
<style type="text/css">
	.st0{fill:#FFFFFF;}
</style>
<path class="st0" d="M68.94,70.64c1.44-0.87,2.9-2.11,4.12-3.86c2.21-3.17,3.26-6.92,3.13-11.14l-0.01-0.25c0-0.83-0.67-1.5-1.5-1.5
	s-1.5,0.67-1.5,1.5l0.01,0.34c0.04,1.33,0.16,5.38-2.6,9.34c-2.37,3.4-5.88,4.32-7.53,4.57l0.02-2.61c0-0.83-0.66-1.5-1.49-1.51
	c0,0-0.01,0-0.01,0c-0.82,0-1.5,0.67-1.5,1.49L60,79.96c0,0.83,0.66,1.5,1.49,1.51c0,0,0.01,0,0.01,0c0.82,0,1.5-0.67,1.5-1.49
	l0.04-7.26c4.11,0.01,6.82,1.09,8.19,3.27c1,1.58,1.09,3.3,1,4.46c-0.07,0.83,0.55,1.55,1.37,1.62c0.04,0,0.08,0,0.12,0
	c0.77,0,1.43-0.59,1.49-1.38c0.13-1.62-0.01-4.02-1.45-6.3C72.68,72.66,71.07,71.41,68.94,70.64z"/>
</svg>
