<?xml version="1.0" encoding="utf-8"?>
<!-- Generator: Adobe Illustrator 23.1.1, SVG Export Plug-In . SVG Version: 6.00 Build 0)  -->
<svg version="1.1" id="Слой_2" xmlns="http://www.w3.org/2000/svg" xmlns:xlink="http://www.w3.org/1999/xlink" x="0px" y="0px"
	 viewBox="0 0 100 100" style="enable-background:new 0 0 100 100;" xml:space="preserve">
<style type="text/css">
	.st0{fill:#FFFFFF;}
</style>
<path class="st0" d="M14.08,69.48c-0.23,0-0.45,0-0.69-0.01l-1.41-0.06l-0.23-10.54c-0.02-0.83,0.64-1.51,1.47-1.53
	c0.86-0.02,1.51,0.64,1.53,1.47l0.17,7.64c5.6-0.36,9.13-4.28,9.67-8.09c0.6-4.27-2.12-8.87-6.19-10.48
	c-0.77-0.3-1.15-1.17-0.85-1.94c0.3-0.77,1.17-1.15,1.94-0.85c5.4,2.13,8.87,8.01,8.07,13.69C26.82,64.05,21.87,69.48,14.08,69.48z"
	/>
</svg>
