<?xml version="1.0" encoding="utf-8"?>
<!-- Generator: Adobe Illustrator 23.1.1, SVG Export Plug-In . SVG Version: 6.00 Build 0)  -->
<svg version="1.1" id="Слой_2" xmlns="http://www.w3.org/2000/svg" xmlns:xlink="http://www.w3.org/1999/xlink" x="0px" y="0px"
	 viewBox="0 0 100 100" style="enable-background:new 0 0 100 100;" xml:space="preserve">
<style type="text/css">
	.st0{fill:#FFFFFF;}
</style>
<path class="st0" d="M55.29,59.77c-0.37-2.86-2.91-6.08-12.95-5.2c-0.12,0.01-0.22,0.02-0.28,0.02c-0.77-0.02-1.4,0.54-1.5,1.3
	c-0.02,0.12-0.01,0.24,0,0.35c-0.02,0.1-0.03,0.2-0.03,0.31l0.02,16.67c0,0.07,0.01,0.13,0.02,0.19c-0.12,0.8,0.42,1.55,1.22,1.69
	c1.09,0.19,2.12,0.29,3.1,0.29c2.48,0,4.55-0.62,5.98-1.82c1.37-1.15,2.09-2.73,2.09-4.57c0-1.24-0.47-2.35-1.35-3.2
	c-0.13-0.13-0.29-0.24-0.44-0.36c1.25-0.43,2.24-1.01,2.93-1.77C55.07,62.64,55.48,61.28,55.29,59.77z M48.94,71.29
	c-1.1,0.92-3.03,1.28-5.39,1.05l-0.01-5.7c3.96,0.01,5.44,0.82,5.98,1.34c0.3,0.29,0.44,0.61,0.44,1.04
	C49.95,69.96,49.61,70.73,48.94,71.29z M51.89,61.66c-0.64,0.7-2.59,1.8-8.36,1.63l-0.01-5.79c5.34-0.35,8.53,0.6,8.79,2.66
	C52.39,60.79,52.26,61.26,51.89,61.66z"/>
</svg>
