<?xml version="1.0" encoding="utf-8"?>
<!-- Generator: Adobe Illustrator 23.1.1, SVG Export Plug-In . SVG Version: 6.00 Build 0)  -->
<svg version="1.1" id="Слой_2" xmlns="http://www.w3.org/2000/svg" xmlns:xlink="http://www.w3.org/1999/xlink" x="0px" y="0px"
	 viewBox="0 0 100 100" style="enable-background:new 0 0 100 100;" xml:space="preserve">
<style type="text/css">
	.st0{fill:#FFFFFF;}
</style>
<path class="st0" d="M23.39,21.94c-4.5-1.17-8.67,1.96-10.14,7.6c-0.92,3.54-1.44,7.36-1.71,11.05c0,0.02,0,0.03,0,0.05
	c0,0,0,0,0,0.01c-0.31,4.31-0.29,8.45-0.15,11.78c0.03,0.81,0.7,1.44,1.5,1.44c0.02,0,0.04,0,0.06,0c0.83-0.03,1.47-0.73,1.44-1.56
	c-0.12-2.91-0.16-6.46,0.06-10.18l13.2-0.07c0.09,2.45,0.09,4.97,0,7.43c-0.03,0.83,0.62,1.52,1.44,1.55
	c0.83,0.04,1.52-0.61,1.55-1.44C30.92,41.92,30.79,23.87,23.39,21.94z M14.67,39.12c0.28-2.99,0.75-6,1.49-8.82
	c0.87-3.33,3.21-6.31,6.48-5.46c2.77,0.72,4.29,6.84,4.84,14.21L14.67,39.12z"/>
</svg>
