<svg xmlns="http://www.w3.org/2000/svg" viewBox="0 0 87.95 78.28"><defs><style>.cls-1,.cls-2{fill:none;stroke-linecap:round;stroke-miterlimit:10;}.cls-1{stroke:#000;stroke-width:8px;}.cls-2{stroke:#fff;stroke-width:3px;}</style></defs><title>АляЛого</title><g id="Слой_2" data-name="Слой 2"><path class="cls-1" d="M11,25.36c35.76-6,58.63-11.48,58.79-10.5C70.69,20.69,7.52,33.49,8,35.75S79.67,22,79.88,23.31c.91,5.52-70.46,17.82-70,20.15S80.14,32,80.25,33.61c.71,10-72.82,17.08-72.47,19.3S83.43,42.6,83.55,44.45C83.88,49.13,7,60.83,7.32,62.86s70.76-9.1,70.95-7.71S11.66,67.92,11.91,69.82s63.63-6.9,63.84-5.47-65.32,12.1-65.21,12.8,69.13-10.06,69.34-8.82S18,80.73,18.11,81.76c0,.27,4.45-.25,17-2,32.68-4.63,52.16-8.42,52.21-8.14S37.47,81.67,37.63,82.75s48.54-3.37,48.5-3.68-57.84,3.7-57.69,5.67c0,.55,13.43.28,39-.74" transform="translate(-3.32 -10.74)"/><path class="cls-2" d="M12.88,52.37c-.28-6.89,0-15.31,1.82-22.45,1.21-4.65,4.54-7.51,8.31-6.53,6.89,1.8,6.23,23.41,6.13,26.15" transform="translate(-3.32 -10.74)"/><path class="cls-2" d="M13,40.63l16-.09" transform="translate(-3.32 -10.74)"/><path class="cls-2" d="M31.72,22.5Q35.31,37,38.88,51.58H56" transform="translate(-3.32 -10.74)"/><path class="cls-2" d="M38.4,22.5c.18,8.17,1.13,13,6,15.36a11.24,11.24,0,0,0,9.09,0c4.43-2.21,5.87-7.19,6.61-15.36" transform="translate(-3.32 -10.74)"/><path class="cls-2" d="M48.56,47.59l-.11-8.75" transform="translate(-3.32 -10.74)"/><path class="cls-2" d="M74.69,49.86c1-19.22,1.67-25-.71-26-3-1.25-8,3.36-10.4,7a24.16,24.16,0,0,0-3.43,16.83" transform="translate(-3.32 -10.74)"/><path class="cls-2" d="M60.57,37.78A16.93,16.93,0,0,1,74.69,49.86" transform="translate(-3.32 -10.74)"/><path class="cls-2" d="M13.26,58.84l.2,9.12c7.13.29,11.92-4.43,12.62-9.39A11.64,11.64,0,0,0,19,46.49" transform="translate(-3.32 -10.74)"/><path class="cls-2" d="M33.17,55.18c2.37,8.71,4,15.75,6.06,23.89H54.88" transform="translate(-3.32 -10.74)"/><path class="cls-2" d="M53.81,74.39l7.08-15.2" transform="translate(-3.32 -10.74)"/><ellipse class="cls-2" cx="22.63" cy="65.38" rx="8.51" ry="5.46"/><circle class="cls-2" cx="61.55" cy="42.54" r="3.28"/><path class="cls-2" d="M61.58,67,61.5,80" transform="translate(-3.32 -10.74)"/><path class="cls-2" d="M74.69,55.39a16.87,16.87,0,0,1-2.86,10.53,12.85,12.85,0,0,1-9.45,5.29c4.41-.08,8.19.91,10.12,4a8.82,8.82,0,0,1,1.23,5.38" transform="translate(-3.32 -10.74)"/><path class="cls-2" d="M42,73.23l0-16.66" transform="translate(-3.32 -10.74)"/><path class="cls-2" d="M42,56.1c.34,0,11.07-1.55,11.76,3.86.42,3.26-2.89,5.18-11,4.8" transform="translate(-3.32 -10.74)"/><path class="cls-2" d="M42,65.16c.27,0,9.41-.78,9.41,3.86,0,3.55-3.47,5.68-9.41,4.63" transform="translate(-3.32 -10.74)"/></g></svg>